<svg width="25" height="25" viewBox="0 0 25 25" fill="none" xmlns="http://www.w3.org/2000/svg">
<path d="M4.11873 22.4226V24.7468H21.999V6.13748L17.0441 1.18045H4.11873V13.6691H2.40723V20.7214L4.11358 22.4277L4.11873 22.4226ZM17.1023 1.7593L21.5402 6.19861H17.1023V1.7593ZM4.48696 1.54867H16.7341V6.56683H21.6307V24.3786H4.48696V20.8296H20.518V13.6691H4.48696V1.54867ZM2.77545 14.0374H20.1497V20.4614H2.77545V14.0374ZM4.11873 20.8296V21.9137L3.03542 20.8296H4.11873Z" fill="white" stroke="white" stroke-width="0.5"/>
<path d="M7.73163 15.4484H7.5512H6.09082V19.0732H6.77866V17.9022H7.58876L7.74783 17.8993C8.24346 17.8993 8.57265 17.8198 8.73541 17.6607C8.89816 17.5009 8.97991 17.179 8.97991 16.6937C8.97991 16.2055 8.89448 15.8755 8.72362 15.7047C8.55277 15.5331 8.2221 15.4484 7.73163 15.4484ZM8.15508 17.2151C8.07113 17.2873 7.87303 17.3227 7.56151 17.3227H6.77866V16.0265H7.63147C7.92531 16.0265 8.10722 16.0633 8.17718 16.1362C8.24714 16.2099 8.28249 16.3991 8.28249 16.7055C8.28175 16.9743 8.23978 17.1437 8.15508 17.2151Z" fill="white" stroke="white" stroke-width="0.5"/>
<path d="M12.2005 15.4484H10.4183V19.0732H12.2219C12.7934 19.0732 13.1616 18.9443 13.3244 18.6873C13.4871 18.4303 13.5689 17.8477 13.5689 16.9434C13.5689 16.3896 13.4665 16.0022 13.2647 15.7805C13.0614 15.5581 12.7072 15.4484 12.2005 15.4484ZM12.7249 18.2668C12.6284 18.4185 12.4156 18.4943 12.0864 18.4943H11.1062V16.0272H12.1284C12.4487 16.0272 12.6527 16.0994 12.7396 16.2445C12.8265 16.3896 12.87 16.7298 12.87 17.2645C12.87 17.7815 12.8214 18.1158 12.7249 18.2668Z" fill="white" stroke="white" stroke-width="0.5"/>
<path d="M15.0703 19.0732H15.7582V17.5826H17.3835V17.0038H15.7582V16.0272H17.4711V15.4484H15.0703V19.0732Z" fill="white" stroke="white" stroke-width="0.5"/>
</svg>
